HIERARCHY
ROOT SpineBase
{
  OFFSET 0.000000 0.000000 0.000000
  CHANNELS 6 Xposition Yposition Zposition Zrotation Xrotation Yrotation
  JOINT SpineMid
  {
    OFFSET 0.000000 28.757950 0.000000
    CHANNELS 3 Zrotation Xrotation Yrotation
    JOINT SpineShoulder
    {
      OFFSET -0.146246 21.384696 -0.628822
      CHANNELS 3 Zrotation Xrotation Yrotation
      JOINT Neck
      {
        OFFSET -0.122030 7.071385 -0.495534
        CHANNELS 3 Zrotation Xrotation Yrotation
        JOINT Head
        {
          OFFSET 1.234630 13.270511 -1.722963
          CHANNELS 3 Zrotation Xrotation Yrotation
          End Site
          {
            OFFSET 0 0 0
          }
        }
      }
      JOINT ShoulderLeft
      {
        OFFSET -16.451012 -3.860475 -2.690270
        CHANNELS 3 Zrotation Xrotation Yrotation
        JOINT ElbowLeft
        {
          OFFSET -3.659044 -27.020823 0.989636
          CHANNELS 3 Zrotation Xrotation Yrotation
          JOINT WristLeft
          {
            OFFSET -0.456384 -21.980018 -6.135073
            CHANNELS 3 Zrotation Xrotation Yrotation
            JOINT HandLeft
            {
              OFFSET 0.724031 -3.212987 1.168746
              CHANNELS 3 Zrotation Xrotation Yrotation
              JOINT HandTipLeft
              {
                OFFSET -1.061363 -5.859320 -0.310711
                CHANNELS 3 Zrotation Xrotation Yrotation
                End Site
                {
                  OFFSET 0 0 0
                }
              }
              JOINT ThumbLeft
              {
                OFFSET 1.698587 -0.503343 -2.512011
                CHANNELS 3 Zrotation Xrotation Yrotation
                End Site
                {
                  OFFSET 0 0 0
                }
              }
            }
          }
        }
      }
      JOINT ShoulderRight
      {
        OFFSET 15.331903 -5.272175 -2.453441
        CHANNELS 3 Zrotation Xrotation Yrotation
        JOINT ElbowRight
        {
          OFFSET 3.398378 -25.756909 2.702749
          CHANNELS 3 Zrotation Xrotation Yrotation
          JOINT WristRight
          {
            OFFSET 1.747183 -22.191390 -4.520627
            CHANNELS 3 Zrotation Xrotation Yrotation
            JOINT HandRight
            {
              OFFSET -0.680724 -2.442562 0.578160
              CHANNELS 3 Zrotation Xrotation Yrotation
              JOINT HandTipRight
              {
                OFFSET 0.897074 -5.526363 -0.521523
                CHANNELS 3 Zrotation Xrotation Yrotation
                End Site
                {
                  OFFSET 0 0 0
                }
              }
              JOINT ThumbRight
              {
                OFFSET 1.520037 0.492174 -2.596294
                CHANNELS 3 Zrotation Xrotation Yrotation
                End Site
                {
                  OFFSET 0 0 0
                }
              }
            }
          }
        }
      }
    }
  }
  JOINT HipLeft
  {
    OFFSET -8.186348 0.603586 -3.136604
    CHANNELS 3 Zrotation Xrotation Yrotation
    JOINT KneeLeft
    {
      OFFSET 0.321282 -29.337375 5.764902
      CHANNELS 3 Zrotation Xrotation Yrotation
      JOINT AnkleLeft
      {
        OFFSET 4.953653 -32.284460 9.098014
        CHANNELS 3 Zrotation Xrotation Yrotation
        JOINT FootLeft
        {
          OFFSET -1.613105 -7.181352 -3.650765
          CHANNELS 3 Zrotation Xrotation Yrotation
          End Site
          {
            OFFSET 0 0 0
          }
        }
      }
    }
  }
  JOINT HipRight
  {
    OFFSET 6.754583 0.409889 -3.437170
    CHANNELS 3 Zrotation Xrotation Yrotation
    JOINT KneeRight
    {
      OFFSET -1.838688 -27.725932 6.467754
      CHANNELS 3 Zrotation Xrotation Yrotation
      JOINT AnkleRight
      {
        OFFSET 0.324857 -31.127496 9.083772
        CHANNELS 3 Zrotation Xrotation Yrotation
        JOINT FootRight
        {
          OFFSET -5.136757 -8.780975 -0.546866
          CHANNELS 3 Zrotation Xrotation Yrotation
          End Site
          {
            OFFSET 0 0 0
          }
        }
      }
    }
  }
}
MOTION
Frames: 9
Frame Time: 0.033333
80.298962 68.199601 360.921073 -0.000000 0.000000 1.152461 0.000000 -0.000000 -1.152461 -0.000000 0.000000 0.000000 -0.000000 0.000000 0.000000 0.000000 0.000000 0.000000 -0.000000 0.000000 0.000000 -0.000000 0.000000 0.000000 -0.000000 0.000000 0.000000 -0.000000 0.000000 0.000000 0.000000 0.000000 0.000000 0.000000 0.000000 0.000000 -0.000000 0.000000 0.000000 -0.000000 0.000000 0.000000 -0.000000 0.000000 0.000000 -0.000000 0.000000 0.000000 0.000000 0.000000 0.000000 0.000000 0.000000 0.000000 0.000000 -0.000000 -1.152461 -0.000000 0.000000 0.000000 -0.000000 0.000000 0.000000 0.000000 0.000000 0.000000 0.000000 -0.000000 -1.152461 -0.000000 0.000000 0.000000 -0.000000 0.000000 0.000000 0.000000 0.000000 0.000000
80.341913 68.208216 360.900678 0.034748 -0.028521 0.921056 -0.034285 0.029076 -0.921039 -0.000000 0.000000 0.000000 -0.000000 0.000000 0.000000 0.000000 0.000000 0.000000 -0.000000 0.000000 0.000000 -0.000000 0.000000 0.000000 -0.000000 0.000000 0.000000 2.987448 -0.963390 0.041394 0.000000 0.000000 0.000000 0.000000 0.000000 0.000000 -0.000000 0.000000 0.000000 -0.000000 0.000000 0.000000 -2.860937 3.009521 -1.439943 2.532142 -6.515406 1.022766 0.000000 0.000000 0.000000 0.000000 0.000000 0.000000 -0.034285 0.029076 -0.921039 -1.001468 -0.035351 -0.288323 3.694846 21.028665 -5.851226 0.000000 0.000000 0.000000 -0.034285 0.029076 -0.921039 -0.000000 0.000000 0.000000 3.096800 12.565740 -7.972981 0.000000 0.000000 0.000000
80.385161 68.213828 360.880891 0.070107 -0.059805 0.705607 -0.069366 0.060663 -0.705534 -0.000000 0.000000 0.000000 -0.000000 0.000000 0.000000 0.000000 0.000000 0.000000 -0.000000 0.000000 0.000000 -0.000000 0.000000 0.000000 -1.030750 0.737583 -0.202991 6.498163 -2.378201 0.378311 0.000000 0.000000 0.000000 0.000000 0.000000 0.000000 -0.000000 0.000000 0.000000 -0.000000 0.000000 0.000000 -4.561628 5.163460 -2.313217 3.844450 -12.160023 1.535067 0.000000 0.000000 0.000000 0.000000 0.000000 0.000000 -0.069366 0.060663 -0.705534 -1.800543 -0.063212 -0.519309 7.878288 35.018990 -11.009907 0.000000 0.000000 0.000000 -0.069366 0.060663 -0.705534 -0.858781 0.292021 -0.245584 8.538068 23.521770 -16.260299 0.000000 0.000000 0.000000
80.428706 68.216435 360.861710 0.106073 -0.093846 0.506305 -0.105240 0.094780 -0.506131 -0.000000 0.000000 0.000000 -0.000000 0.000000 0.000000 0.000000 0.000000 0.000000 -0.000000 0.000000 0.000000 -0.000000 0.000000 0.000000 -1.412599 0.918752 -0.297193 8.819719 -2.971214 0.562385 0.000000 0.000000 0.000000 0.000000 0.000000 0.000000 -0.000000 0.000000 0.000000 -0.000000 0.000000 0.000000 -5.533995 6.764722 -2.871970 4.206066 -17.129840 1.661596 0.000000 0.000000 0.000000 0.000000 0.000000 0.000000 -0.105240 0.094780 -0.506131 -2.392953 -0.085918 -0.691490 11.385843 43.124687 -14.912111 0.000000 0.000000 0.000000 -0.105240 0.094780 -0.506131 -1.178769 0.396329 -0.336167 13.941022 31.598667 -24.053563 0.000000 0.000000 0.000000
80.472547 68.216037 360.843136 0.142641 -0.130641 0.323320 -0.141902 0.131444 -0.322994 -0.000000 0.000000 0.000000 -0.000000 0.000000 0.000000 0.000000 0.000000 0.000000 -0.000000 0.000000 0.000000 -0.249629 -0.865473 0.085939 -1.465153 1.851958 -0.454313 10.512740 -3.180142 0.688787 0.000000 0.000000 0.000000 0.000000 0.000000 0.000000 -0.000000 0.000000 0.000000 -0.000000 0.000000 0.000000 -6.005427 7.993963 -3.239636 3.755861 -21.425099 1.482410 0.000000 0.000000 0.000000 0.000000 0.000000 0.000000 -0.141902 0.131444 -0.322994 -2.776036 -0.105245 -0.803928 13.636166 47.459644 -17.333556 0.000000 0.000000 0.000000 -0.141902 0.131444 -0.322994 -1.426429 0.472530 -0.406014 18.363398 36.532571 -29.968654 0.000000 0.000000 0.000000
80.516686 68.212636 360.825169 0.179807 -0.170184 0.156798 -0.179341 0.170675 -0.156264 -0.000000 0.000000 0.000000 -0.000000 0.000000 0.000000 0.000000 0.000000 0.000000 -0.000000 0.000000 0.000000 -0.268348 -1.020816 0.093936 -1.679013 1.961601 -0.549158 11.574885 -3.012824 0.736067 0.000000 0.000000 0.000000 0.000000 0.000000 0.000000 -0.000000 0.000000 0.000000 -0.000000 0.000000 0.000000 -6.102271 8.962608 -3.481802 2.583550 -24.959834 1.058902 0.000000 0.000000 0.000000 0.000000 0.000000 0.000000 -0.179341 0.170675 -0.156264 -2.948523 -0.122356 -0.856131 14.412522 49.279070 -18.225028 0.000000 0.000000 0.000000 -0.179341 0.170675 -0.156264 -1.602284 0.520541 -0.455573 20.832584 38.952967 -33.230343 0.000000 0.000000 0.000000
80.569965 68.202629 360.805707 0.212824 -0.224613 0.024438 -0.212730 0.224702 -0.023603 -0.000000 0.000000 0.000000 -0.254891 0.913106 -0.116112 0.000000 0.000000 0.000000 -0.000000 0.000000 0.000000 -0.257291 -1.139598 0.093174 -2.295945 2.615609 -0.617981 12.360414 -2.952046 0.788281 0.000000 0.000000 0.000000 0.000000 0.000000 0.000000 -0.000000 0.000000 0.000000 -0.000000 0.000000 0.000000 -5.435987 9.553913 -3.523836 -2.336873 -27.291405 -0.296192 0.000000 0.000000 0.000000 0.000000 0.000000 0.000000 -1.119550 0.344539 -0.196045 -2.122722 -0.293876 -0.716180 10.686305 49.072455 -15.062978 0.000000 0.000000 0.000000 -0.212730 0.224702 -0.023603 -1.842981 0.568072 -0.523650 22.566579 40.945953 -35.767116 0.000000 0.000000 0.000000
80.620270 68.191874 360.790933 0.253373 -0.271144 -0.107614 -0.253885 0.270665 0.108814 -0.000000 0.000000 0.000000 -0.315967 1.000029 -0.131422 0.000000 0.000000 0.000000 -0.000000 0.000000 0.000000 -0.220828 -1.202871 0.084541 -1.911393 1.719099 -0.699085 11.508368 -1.491898 0.538092 0.000000 0.000000 0.000000 0.000000 0.000000 0.000000 -0.000000 0.000000 0.000000 -0.000000 0.000000 0.000000 -5.128021 10.373697 -3.679703 -4.041373 -28.959201 -0.796720 0.000000 0.000000 0.000000 0.000000 0.000000 0.000000 -1.328379 0.343811 -0.095766 -1.632425 -0.254064 -0.588926 9.523731 44.160976 -13.368142 0.000000 0.000000 0.000000 -0.253885 0.270665 0.108814 -1.956927 0.573776 -0.556255 21.265105 40.697394 -34.640810 0.000000 0.000000 0.000000
80.664270 68.177161 360.772731 0.289849 -0.318995 -0.246661 -0.291224 0.317740 0.248275 -0.000000 0.000000 0.000000 -0.408335 1.062950 -0.148253 0.000000 0.000000 0.000000 -0.000000 0.000000 0.000000 -0.190734 -1.254960 0.077442 -1.580441 1.242443 -0.693233 10.237704 -0.661424 0.386644 0.000000 0.000000 0.000000 0.000000 0.000000 0.000000 -0.000000 0.000000 0.000000 -0.000000 0.000000 0.000000 -5.400118 12.110689 -4.141455 -2.344221 -31.987905 -0.349936 0.000000 0.000000 0.000000 0.000000 0.000000 0.000000 -1.549964 0.241324 0.006223 -0.765959 -0.058402 -0.343868 7.411248 39.351724 -11.372754 0.000000 0.000000 0.000000 -0.291224 0.317740 0.248275 -1.887881 0.554449 -0.536905 16.817021 37.373429 -29.417989 0.000000 0.000000 0.000000
